<?xml version="1.0" encoding="utf-8"?>
<!-- Generator: Adobe Illustrator 27.5.0, SVG Export Plug-In . SVG Version: 6.00 Build 0)  -->
<svg version="1.1" xmlns="http://www.w3.org/2000/svg" xmlns:xlink="http://www.w3.org/1999/xlink" x="0px" y="0px"
	 viewBox="0 0 500 500" style="enable-background:new 0 0 500 500;" xml:space="preserve">
<g id="BACKGROUND">
	<circle style="fill:#E5BDD9;" cx="250" cy="250" r="188.538"/>
</g>
<g id="OBJECTS">
	<g>
		<g>
			<path style="fill:#4C1C3C;" d="M408.716,197.042c9.288-0.9,18.356-1.762,27.489-1.118c8.025,0.566,14.664,3.98,20.322,9.596
				c6.254,6.207,9.767,13.605,10.057,22.445c0.224,6.824-2.108,12.89-6.034,18.309c-6.014,8.301-14.161,13.94-23.554,17.764
				c-6.74,2.744-13.656,4.981-20.879,6.2c-8.949,1.51-17.592,0.678-26.312-1.933c-9.668-2.895-18.25-7.794-26.847-12.791
				c-0.579-0.337-1.147-0.694-2.151-1.303c1.255,2.741,2.326,5.018,3.346,7.318c3.938,8.882,6.438,18.202,8.401,27.685
				c3.655,17.657,3.939,35.536,3.547,53.461c-0.084,3.839-0.526,7.648-0.924,11.46c-0.116,1.116-0.236,2.027,1.098,2.746
				c1.765,0.951,2.127,3.118,1.095,5.212c-0.355,0.72-0.352,1.229,0.055,1.894c1.025,1.675,1.224,3.619,1.449,5.493
				c0.582,4.848,0.683,9.75,1.64,14.557c0.182,0.914-0.605,0.983-1.185,1.358c-0.601-1.098-0.427-2.369-0.912-3.573
				c-0.507,1.458,0.268,2.928-0.405,4.235c-0.128,0.249-0.494,0.379-1.113,0.227c0-3.176,0-6.406,0-9.636
				c-0.151-0.004-0.303-0.008-0.454-0.013c-0.227,3.061-0.504,6.119-0.656,9.183c-0.056,1.129-0.315,1.741-1.662,1.436
				c0-1.632,0-3.265,0-4.899c-0.057-0.002-0.114-0.005-0.171-0.007c-0.172,1.721-0.344,3.442-0.523,5.245
				c-0.447,0.094-0.9,0.19-1.479,0.312c-0.338-6.416,1.241-12.643,1.137-18.971c-0.805,3.199-1.138,6.464-1.57,9.725
				c-0.411,3.102-0.242,6.327-1.522,9.291c-0.422-8.009,0.244-15.882,2.671-23.696c-2.027-0.789-2.967-2.248-2.717-4.461
				c0.114-1.01,0.364-1.921,1.199-2.503c1.042-0.726,1.295-1.782,1.358-2.9c0.287-5.107,0.594-10.205,0.468-15.337
				c-0.204-8.319-0.355-16.639-0.855-24.946c-0.659-10.946-2.15-21.784-4.657-32.539c1.919,32.345-5.159,62.688-20.035,91.435
				c0.78,0.91,1.265,2.03,1.146,3.402c-0.129,1.481-0.788,2.672-2.177,3.036c-1.402,0.368-2.13,1.275-2.767,2.372
				c-3.047,5.244-4.991,10.877-6.01,16.853c-0.144,0.845,0.202,2.368-1.783,2.038c0.383-2.333,0.763-4.648,1.143-6.963
				c-1.021,1.999-1.348,4.185-1.784,6.324c-0.214,1.045-0.658,1.173-1.663,0.945c0.809-6.244,2.759-12.107,5.935-17.863
				c-1.299,0.967-3.418,4.081-4.273,6.245c-1.363,3.451-2.799,6.884-3.045,10.663c-0.059,0.899-0.362,1.705-1.685,1.163
				c0.604-6.217,2.738-11.901,5.794-17.288c-4.138,5.009-5.72,11.086-7.167,17.251c-0.722,0.162-1.201-0.067-0.994-0.872
				c1.823-7.095,3.337-14.338,8.957-19.708c0.539-0.515,1.044-1.094,1.661-1.495c1.63-1.059,3.301-1.969,2.932-4.433
				c-0.103-0.69,0.538-1.637,1.366-1.809c1.55-0.321,1.977-1.488,2.573-2.69c6.408-12.92,10.847-26.542,14.257-40.5
				c1.848-7.566,2.435-15.351,3.102-23.098c0.824-9.581,0.873-19.174,0.342-28.776c-0.487-8.823-2.447-17.252-6.607-25.093
				c-1.268-2.391-2.96-4.544-4.555-6.705c-3.245-4.396-4.633-9.303-4.829-14.609c-0.364-9.861,1.789-19.345,4.637-28.693
				c4.599-15.091,11.924-28.767,21.735-41.097c5.528-6.948,11.801-13.056,20.269-16.403c2.753-1.088,5.593-1.806,8.575-1.327
				c4.479,0.721,7.226,3.634,9.071,7.526c2.032,4.286,2.655,8.922,3.232,13.572c1.37,11.031-1.069,21.341-5.782,31.239
				C408.925,196.447,408.849,196.695,408.716,197.042z M357.612,248.038c2.217,1.794,4.367,2.962,6.484,4.152
				c8.1,4.555,16.003,9.509,25.061,12.11c5.367,1.541,10.661,3.292,16.354,3.233c11.283-0.117,21.815-3.296,31.991-7.828
				c7.354-3.275,13.703-7.987,18.862-14.208c8.981-10.827,8.253-24.674,0.458-34.203c-5.333-6.519-11.773-11.121-20.406-11.807
				c-9.552-0.758-19.061-0.054-28.535,1.245c-0.847,0.116-1.408,0.482-1.849,1.278c-7.746,13.986-17.64,26.242-29.75,36.691
				c-3.793,3.273-7.644,6.487-12.283,8.547C362.09,248.096,360.123,248.72,357.612,248.038z M353.81,241.387
				c0.369-4.79,2.339-9.025,5.152-12.813c11.122-14.98,25.94-24.663,43.676-30.055c1.146-0.348,1.884-0.874,2.45-1.951
				c5.324-10.131,8.151-20.752,6.505-32.278c-0.593-4.153-1.13-8.329-3.141-12.112c-1.351-2.542-3.177-4.514-6.193-5.036
				c-3.06-0.529-5.789,0.56-8.432,1.811c-7.683,3.637-13.392,9.6-18.382,16.249c-13.619,18.145-22.112,38.399-24.509,61.056
				c-0.496,4.685-0.205,9.357,1.346,13.873C352.513,240.799,352.604,241.666,353.81,241.387z M401.607,202.534
				c-0.651,0.127-0.914,0.142-1.15,0.229c-13.756,5.077-25.927,12.54-35.566,23.767c-3.135,3.652-5.906,7.552-7.183,12.294
				c-0.371,1.375-0.762,2.766-0.263,4.228c0.473,1.386,1.317,1.965,2.79,1.632c2.337-0.529,4.339-1.746,6.223-3.123
				c10.839-7.922,20.185-17.343,28.049-28.223C396.962,209.939,399.338,206.483,401.607,202.534z M371.891,359.993
				c-0.076,1.292,0.385,2.092,1.775,2.104c1.316,0.011,2.132-0.737,2.155-2c0.024-1.342-0.75-1.931-1.984-1.951
				C372.612,358.127,371.751,358.585,371.891,359.993z M343.08,376.21c0.19,1.158,0.793,1.933,1.986,1.834
				c1.165-0.097,1.954-0.766,1.874-2.069c-0.071-1.167-0.662-1.891-1.901-1.823C343.766,374.221,343.241,375.061,343.08,376.21z"/>
			<path style="fill:#4C1C3C;" d="M148.052,455.969c-0.504,0.18-0.94,0.336-1.471,0.525c-1.521-2.716-2.17-5.717-3.171-8.593
				c0.04,3.009,0.854,5.849,1.835,8.659c-0.84,0.806-1.316,0.54-1.746-0.426c-1.47-3.302-1.936-6.83-2.426-10.356
				c-0.034-0.246-0.068-0.492-0.221-0.718c-0.005,4.159,1.052,8.129,2.278,12.026c-0.811,0.818-1.719-0.263-2.599,0.303
				c-0.25,0.161-0.695-1.169-0.97-1.833c-1.757-4.245-3.171-8.578-2.957-13.264c0.034-0.742,0.166-1.478,0.218-2.22
				c0.124-1.775,1.285-3.607-0.332-5.299c-0.209-0.219-0.305-0.821-0.157-1.062c1.602-2.603,0.019-5.032-0.48-7.444
				c-1.745-8.428-1.973-16.91-1.365-25.449c1.133-15.888,5.197-31.234,8.657-46.69c1.044-4.664,2.213-9.3,3.308-13.953
				c0.076-0.322,0.01-0.678,0.01-1.416c-1.603,3.116-3.031,5.898-4.885,8.426c-4.983,6.794-10.973,12.479-18.385,16.565
				c-2.828,1.559-5.844,2.676-9.142,2.382c-4.956-0.441-7.603-3.672-9.136-8.023c-2.072-5.876-2.398-11.977-2.108-18.136
				c0.191-4.056,0.882-8.033,2.049-12.163c-2.068,0.621-3.998,1.249-5.953,1.781c-7.377,2.009-14.833,2.897-22.432,1.427
				c-2.357-0.456-4.638-1.152-6.767-2.29c-5.364-2.867-7.766-8.074-6.237-13.993c2.917-11.296,9.579-19.914,19.16-26.412
				c9.819-6.659,20.71-10.479,32.349-12.383c9.373-1.533,18.662-1.472,27.829,1.291c1.53,0.461,2.992,1.084,4.415,1.821
				c3.362,1.743,5.303,4.716,6.157,8.159c1.395,5.621,2.205,11.327,1.841,17.215c-1.251,20.253-0.257,40.501,0.571,60.74
				c0.532,12.996,2.037,25.91,4.225,38.731c2.16,12.661,5.755,24.918,10.827,36.73c0.084,0.195,0.122,0.47,0.273,0.568
				c4.109,2.685,4.571,7.213,5.656,11.369c1.164,4.461,2.064,8.991,3.601,13.398c-1.001,0.488-1.971-0.211-2.976,0.067
				c-0.755,0.209-0.782-0.727-0.904-1.251c-1.042-4.498-2.052-9.004-3.074-13.506c-0.139-0.61-0.293-1.216-0.561-1.795
				c0.605,5.563,1.876,10.989,3.432,16.358c-1.229,0.434-1.635-0.169-1.908-1.11c-1.511-5.207-2.59-10.496-3.102-15.898
				c-0.023-0.247-0.08-0.491-0.256-0.711c-0.383,6.02,1.281,11.758,2.519,17.531c-1.161,0.347-1.743-0.001-2.022-1.038
				c-1.343-4.993-2.559-10.005-2.259-15.234c0.069-1.202,0.219-2.323-0.642-3.384c-0.554-0.682-0.604-1.74-0.161-2.44
				c0.614-0.969,0.287-1.64-0.178-2.447c-5.962-10.364-9.154-21.699-11.47-33.305c-3.945-19.768-5.545-39.771-5.678-59.906
				c-0.017-2.544-0.002-5.089-0.326-7.674c-0.888,3.628-1.826,7.245-2.655,10.887c-2.547,11.18-5.434,22.286-7.514,33.568
				c-2.141,11.612-3.434,23.3-2.392,35.13c0.303,3.443,0.802,6.868,1.22,10.301c0.03,0.249,0.059,0.623,0.216,0.711
				c1.51,0.846,1.558,2.418,2.206,3.768c1.813,3.774,2.066,7.873,3.163,11.779C145.954,449.575,146.674,452.841,148.052,455.969z
				 M147.735,281.936c-4.244-2.33-8.499-2.923-12.765-3.404c-6.246-0.704-12.44-0.191-18.616,0.885
				c-12.848,2.239-24.641,6.884-34.874,15.121c-6.738,5.424-11.615,12.14-13.841,20.584c-1.368,5.189,0.419,8.649,5.379,10.761
				c3.131,1.333,6.448,1.822,9.817,1.891c8.073,0.166,15.661-2.043,23.121-4.842c0.599-0.225,0.927-0.629,1.159-1.201
				c5.785-14.302,15.794-25.152,28.045-34.129C138.813,284.927,142.636,282.479,147.735,281.936z M150.873,295.354
				c-3.235,5.107-7.036,9.425-11.571,12.999c-8.474,6.679-17.715,12.139-27.542,16.59c-1.014,0.46-1.558,1.072-1.912,2.104
				c-2.424,7.059-3.081,14.33-2.573,21.719c0.24,3.496,0.69,6.983,2.408,10.159c1.325,2.449,3.308,3.683,6.115,3.471
				c3.418-0.258,6.286-1.913,9.023-3.76c9.123-6.154,15.82-14.251,19.776-24.605c4.422-11.574,7.442-23.38,6.713-35.904
				C151.261,297.278,151.291,296.422,150.873,295.354z M112.842,319.957c3.846-1.714,7.216-3.598,10.529-5.582
				c6.988-4.186,14.119-8.216,19.62-14.395c3.13-3.515,6.95-6.657,7.169-12c0.066-1.612-0.736-2.959-2.443-3.085
				c-1.557-0.115-2.902,0.522-4.234,1.195c-4.815,2.433-8.752,6.02-12.672,9.631C123.369,302.573,117.213,310.379,112.842,319.957z
				 M171.145,443.378c-0.696,0.11-0.995,0.457-0.934,1.094c0.07,0.733,0.319,1.424,1.151,1.41c0.617-0.011,0.76-0.649,0.755-1.189
				C172.11,444.008,171.835,443.486,171.145,443.378z M139.124,448.39c-0.221-2.594-0.442-5.188-0.663-7.781
				C138.014,443.263,138.39,445.842,139.124,448.39z M138.763,432.662c-0.866,1.004-0.398,1.686,0.259,2.285
				c0.318,0.29,0.803,0.212,0.929-0.189C140.263,433.765,139.58,433.248,138.763,432.662z"/>
		</g>
		<g>
			<g>
				<g>
					<path style="fill:#E8C152;" d="M144.114,252.035c9.555,4.185,15.139,16.484,11.454,24.314
						c-9.496-10.158-21.31-15.755-34.876-17.876C124.551,252.094,135.162,248.114,144.114,252.035z"/>
					<path style="fill:#E8C152;" d="M151.519,284.142c-4.635,5.643-14.037,8.405-20.759,6.099c-0.906-0.311-1.267-0.803-1.372-1.673
						c-0.186-1.538-0.058-3.064,0.105-4.591c0.092-0.86,0.688-1.198,1.398-1.55c2.63-1.307,3.708-4.255,2.581-6.872
						c-1.224-2.844-4.537-4.275-7.45-3.219c-2.617,0.95-4.101,3.903-3.32,6.611c0.059,0.204,0.072,0.476,0.211,0.594
						c2.385,2.012,1.062,4.584,1.099,7.317c-5.623-4.823-8.189-10.602-7.77-17.677c0.044-0.736,0.203-1.47,0.359-2.195
						c0.475-2.218,0.485-2.23,2.86-2.219c5.596,0.027,10.739,1.68,15.704,4.174c4.831,2.426,9.204,5.435,12.999,9.282
						c1.274,1.291,2.358,2.736,3.36,4.245C151.899,283.032,152.075,283.465,151.519,284.142z"/>
					<path style="fill:#E8C152;" d="M154.033,284.655c-0.364-1.957-1.535-3.354-2.643-4.756
						c-4.877-6.172-11.103-10.517-18.302-13.605c-3.406-1.461-6.907-2.389-10.562-2.892c-2.515-0.346-4.972-0.042-7.393,0.516
						c-1.325,0.306-1.436-0.186-1.147-1.199c0.366-1.285,1.348-1.809,2.574-2.063c3.661-0.76,7.336-0.567,10.862,0.448
						c7.288,2.097,14.102,5.283,20.211,9.835c2.812,2.096,5.386,4.463,7.361,7.404c0.595,0.886,1.123,1.815,1.35,2.875
						C156.718,282.96,155.987,284.094,154.033,284.655z"/>
				</g>
				<g>
					<path style="fill:#59304D;" d="M114.674,265.461c-1.144-0.483-2.316-1.082-2.262-2.517c0.063-1.676,0.95-3.182,2.576-3.465
						c2.381-0.415,3.407-2.19,4.852-3.69c5.637-5.855,12.467-8.34,20.556-6.736c12.341,2.448,19.083,12.614,18.069,23.693
						c-0.058,0.632-0.072,1.292-0.27,1.884c-0.799,2.387-1.036,4.682-0.336,7.232c0.593,2.163-1.513,4.028-3.888,3.877
						c-0.864-0.055-1.449,0.172-2.094,0.764c-7.291,6.693-15.589,8.071-24.689,4.357c-8.564-3.495-14.171-13.46-12.928-22.68
						C114.378,267.291,114.529,266.406,114.674,265.461z M124.092,286.742c-0.037-2.733,1.286-5.305-1.099-7.317
						c-0.139-0.117-0.152-0.39-0.211-0.594c-0.781-2.708,0.703-5.662,3.32-6.611c2.913-1.057,6.226,0.374,7.45,3.219
						c1.126,2.617,0.049,5.564-2.581,6.872c-0.71,0.353-1.307,0.69-1.398,1.55c-0.163,1.528-0.291,3.053-0.105,4.592
						c0.105,0.87,0.467,1.363,1.372,1.673c6.723,2.306,16.125-0.456,20.759-6.099c0.556-0.677,0.38-1.111,0.004-1.676
						c-1.002-1.509-2.086-2.953-3.36-4.245c-3.795-3.846-8.168-6.855-12.999-9.282c-4.965-2.494-10.109-4.146-15.704-4.174
						c-2.375-0.012-2.385,0.001-2.86,2.219c-0.155,0.724-0.315,1.458-0.359,2.195C115.903,276.14,118.47,281.92,124.092,286.742z
						 M155.648,276.234c3.686-7.83-1.899-20.129-11.454-24.314c-8.952-3.921-19.563,0.059-23.423,6.438
						C134.339,260.479,146.152,266.076,155.648,276.234z M154.114,284.539c1.954-0.561,2.684-1.695,2.311-3.437
						c-0.227-1.06-0.755-1.989-1.35-2.875c-1.974-2.942-4.549-5.309-7.361-7.404c-6.109-4.553-12.923-7.738-20.21-9.835
						c-3.526-1.015-7.201-1.208-10.862-0.448c-1.227,0.255-2.208,0.778-2.574,2.063c-0.289,1.014-0.178,1.505,1.147,1.199
						c2.421-0.559,4.878-0.862,7.393-0.516c3.654,0.503,7.155,1.431,10.562,2.892c7.199,3.088,13.426,7.433,18.302,13.605
						C152.579,281.185,153.75,282.583,154.114,284.539z"/>
				</g>
			</g>
			<g>
				<g>
					<path style="fill:#E8C152;" d="M382.784,233.607c-11.109,1.737-20.782,6.32-28.558,14.637
						c-3.018-6.412,1.555-16.482,9.378-19.909C370.935,225.125,379.624,228.383,382.784,233.607z"/>
					<path style="fill:#E8C152;" d="M357.538,253.254c0.82-1.235,1.708-2.418,2.751-3.476c3.107-3.149,6.688-5.613,10.643-7.6
						c4.065-2.042,8.277-3.395,12.859-3.418c1.945-0.009,1.953,0.001,2.342,1.817c0.127,0.593,0.258,1.194,0.294,1.797
						c0.343,5.793-1.758,10.526-6.362,14.474c0.03-2.238-1.053-4.344,0.9-5.992c0.114-0.096,0.125-0.319,0.173-0.486
						c0.64-2.217-0.576-4.636-2.718-5.413c-2.385-0.865-5.098,0.307-6.1,2.635c-0.922,2.143-0.04,4.556,2.114,5.627
						c0.581,0.289,1.07,0.565,1.145,1.269c0.133,1.251,0.238,2.5,0.086,3.76c-0.086,0.713-0.382,1.116-1.124,1.37
						c-5.505,1.888-13.203-0.374-16.998-4.994C357.086,254.072,357.231,253.717,357.538,253.254z"/>
					<path style="fill:#E8C152;" d="M353.59,252.231c0.186-0.868,0.618-1.629,1.105-2.354c1.617-2.409,3.725-4.347,6.027-6.063
						c5.002-3.728,10.581-6.336,16.549-8.053c2.888-0.831,5.896-0.989,8.894-0.367c1.004,0.209,1.808,0.637,2.108,1.69
						c0.236,0.83,0.146,1.232-0.939,0.982c-1.982-0.457-3.994-0.706-6.054-0.423c-2.992,0.412-5.859,1.172-8.648,2.368
						c-5.895,2.529-10.993,6.087-14.986,11.14c-0.907,1.148-1.866,2.292-2.164,3.894
						C353.882,254.586,353.284,253.657,353.59,252.231z"/>
				</g>
				<g>
					<path style="fill:#59304D;" d="M388.051,241.556c1.018,7.549-3.573,15.709-10.586,18.571
						c-7.452,3.041-14.246,1.912-20.216-3.568c-0.528-0.485-1.007-0.67-1.714-0.625c-1.945,0.123-3.67-1.403-3.184-3.174
						c0.573-2.088,0.379-3.968-0.275-5.922c-0.162-0.485-0.174-1.025-0.221-1.543c-0.831-9.071,4.69-17.396,14.795-19.4
						c6.624-1.314,12.216,0.721,16.832,5.515c1.183,1.229,2.023,2.682,3.973,3.021c1.331,0.232,2.057,1.465,2.109,2.837
						c0.044,1.176-0.916,1.666-1.853,2.061C387.83,240.103,387.953,240.827,388.051,241.556z M386.361,242.28
						c-0.036-0.603-0.167-1.204-0.294-1.797c-0.389-1.816-0.397-1.826-2.342-1.817c-4.582,0.022-8.794,1.376-12.859,3.418
						c-3.956,1.987-7.536,4.451-10.643,7.6c-1.043,1.057-1.931,2.24-2.751,3.475c-0.307,0.462-0.452,0.818,0.003,1.372
						c3.795,4.62,11.494,6.882,16.998,4.994c0.741-0.254,1.038-0.658,1.124-1.37c0.152-1.26,0.048-2.509-0.086-3.76
						c-0.075-0.704-0.564-0.98-1.145-1.269c-2.153-1.07-3.036-3.484-2.114-5.627c1.002-2.329,3.715-3.501,6.1-2.635
						c2.143,0.777,3.358,3.196,2.718,5.413c-0.048,0.167-0.059,0.39-0.173,0.486c-1.953,1.648-0.869,3.754-0.9,5.992
						C384.603,252.806,386.705,248.074,386.361,242.28z M382.718,233.513c-3.16-5.224-11.849-8.483-19.179-5.272
						c-7.824,3.427-12.397,13.497-9.379,19.909C361.936,239.833,371.609,235.249,382.718,233.513z M357.581,251.057
						c3.993-5.053,9.091-8.612,14.986-11.14c2.789-1.196,5.656-1.956,8.648-2.368c2.06-0.284,4.071-0.035,6.054,0.423
						c1.085,0.25,1.175-0.152,0.939-0.982c-0.3-1.052-1.104-1.481-2.108-1.69c-2.998-0.622-6.007-0.464-8.894,0.367
						c-5.967,1.717-11.547,4.326-16.549,8.053c-2.303,1.716-4.411,3.654-6.027,6.063c-0.487,0.726-0.919,1.486-1.105,2.354
						c-0.306,1.426,0.292,2.355,1.892,2.814C355.714,253.349,356.673,252.205,357.581,251.057z"/>
				</g>
			</g>
			<g>
				<g>
					<path style="fill:#E8C152;" d="M381.559,258.496c-10.086,7.422-17.291,16.921-20.703,29.134
						c-6.276-4.786-6.93-17.087-0.958-24.492C365.492,256.199,375.753,254.957,381.559,258.496z"/>
					<path style="fill:#E8C152;" d="M366.702,290.879c0.176-1.642,0.446-3.267,0.934-4.848c1.453-4.708,3.726-8.983,6.614-12.978
						c2.969-4.106,6.436-7.607,10.952-9.983c1.917-1.008,1.93-1.002,3.248,0.592c0.43,0.521,0.868,1.048,1.213,1.625
						c3.315,5.549,3.669,11.305,1.148,17.572c-1.12-2.227-3.272-3.752-2.189-6.383c0.063-0.153-0.041-0.379-0.079-0.569
						c-0.507-2.52-2.95-4.286-5.467-3.953c-2.802,0.37-4.88,2.921-4.675,5.738c0.189,2.591,2.301,4.523,4.979,4.475
						c0.723-0.013,1.348,0.009,1.783,0.666c0.774,1.168,1.52,2.348,2.016,3.671c0.281,0.748,0.195,1.299-0.407,1.931
						c-4.47,4.694-13.24,6.413-19.363,3.796C366.676,291.919,366.636,291.494,366.702,290.879z"/>
					<path style="fill:#E8C152;" d="M362.276,291.896c-0.262-0.953-0.226-1.927-0.117-2.894c0.36-3.211,1.448-6.209,2.842-9.088
						c3.028-6.253,7.202-11.697,12.217-16.459c2.427-2.305,5.319-4.006,8.601-4.931c1.1-0.31,2.114-0.299,2.951,0.587
						c0.66,0.699,0.777,1.143-0.424,1.453c-2.194,0.566-4.31,1.354-6.2,2.692c-2.745,1.944-5.188,4.168-7.33,6.783
						c-4.527,5.527-7.737,11.662-9.087,18.707c-0.307,1.6-0.667,3.224-0.138,4.96C363.774,294.073,362.706,293.462,362.276,291.896z
						"/>
				</g>
				<g>
					<path style="fill:#59304D;" d="M390.848,263.645c4.884,6.938,4.538,17.36-0.922,23.79c-5.802,6.832-13.096,9.207-21.811,6.858
						c-0.771-0.208-1.34-0.145-2.016,0.263c-1.859,1.121-4.347,0.498-4.777-1.502c-0.507-2.358-1.664-4.115-3.314-5.711
						c-0.409-0.396-0.698-0.924-1.011-1.411c-5.481-8.538-4.301-19.6,4.656-26.771c5.871-4.701,12.443-5.562,19.467-3.195
						c1.8,0.606,3.377,1.611,5.478,0.945c1.434-0.455,2.786,0.391,3.542,1.721c0.648,1.139-0.049,2.117-0.772,2.989
						C389.882,262.323,390.377,262.976,390.848,263.645z M389.549,265.229c-0.345-0.577-0.783-1.104-1.213-1.625
						c-1.317-1.594-1.33-1.601-3.248-0.592c-4.517,2.376-7.984,5.876-10.952,9.982c-2.888,3.995-5.161,8.269-6.614,12.978
						c-0.488,1.581-0.757,3.206-0.934,4.848c-0.066,0.615-0.027,1.04,0.708,1.354c6.123,2.617,14.893,0.897,19.363-3.797
						c0.602-0.632,0.688-1.183,0.407-1.931c-0.496-1.323-1.242-2.504-2.016-3.671c-0.436-0.658-1.061-0.679-1.784-0.666
						c-2.678,0.048-4.79-1.884-4.979-4.475c-0.206-2.816,1.873-5.368,4.675-5.738c2.517-0.332,4.96,1.433,5.467,3.953
						c0.038,0.19,0.142,0.416,0.079,0.569c-1.083,2.631,1.069,4.156,2.189,6.383C393.218,276.534,392.864,270.778,389.549,265.229z
						 M381.445,258.436c-5.806-3.539-16.067-2.296-21.661,4.642c-5.971,7.405-5.318,19.706,0.958,24.492
						C364.154,275.357,371.359,265.859,381.445,258.436z M365.616,288.686c1.35-7.045,4.561-13.18,9.088-18.707
						c2.142-2.615,4.585-4.839,7.33-6.783c1.89-1.338,4.006-2.126,6.2-2.692c1.201-0.31,1.084-0.754,0.424-1.453
						c-0.837-0.886-1.851-0.897-2.951-0.587c-3.282,0.925-6.174,2.627-8.601,4.931c-5.015,4.762-9.189,10.206-12.217,16.459
						c-1.394,2.879-2.482,5.877-2.842,9.087c-0.109,0.967-0.145,1.941,0.117,2.894c0.43,1.567,1.498,2.177,3.316,1.809
						C364.949,291.909,365.309,290.286,365.616,288.686z"/>
				</g>
			</g>
		</g>
		<path style="fill:#FFFDFA;" d="M153.419,216.844c-0.015,1.325-0.004,1.331-0.238,1.744c-3.404,6.012-5.504,12.541-7.263,19.157
			c-1.488,5.596-2.212,11.355-2.713,17.134c-0.493,5.692-0.748,11.38-0.155,17.077c0.606,5.815,1.662,11.555,2.818,17.283
			c1.741,8.631,4.545,16.826,9.632,24.102c2.566,3.671,5.293,7.161,9.074,9.781c7.475,5.18,16.161,6.219,24.758,7.555
			c5.621,0.873,11.334,1.041,16.961,1.936c6.301,1.001,11.839,3.361,15.933,8.513c1.815,2.284,3.741,4.461,5.465,6.837
			c3.401,4.69,7.63,8.581,12.638,11.605c7.848,4.739,15.836,5.393,24.09,1.135c5.453-2.814,9.877-6.865,13.751-11.534
			c1.758-2.119,3.344-4.388,5.007-6.585c4.797-6.338,11.271-9.376,18.939-10.262c8.71-1.005,17.454-1.667,26.064-3.507
			c6.941-1.483,13.175-4.185,18.177-9.289c2.766-2.822,4.978-6.099,7.002-9.502c3.856-6.483,5.996-13.559,7.524-20.883
			c1.884-9.027,3.332-18.081,3.06-27.355c-0.181-6.182-0.891-12.29-1.945-18.374c-1.489-8.589-4.293-16.728-8.242-24.484
			c-0.273-0.537-0.734-1.012-0.39-1.945c2.083,2.081,3.252,4.563,4.646,6.895c0.139-0.117,0.269-0.171,0.291-0.253
			c0.166-0.613,0.337-1.227,0.458-1.85c2.225-11.486,2.807-23.129,3.182-34.779c0.29-9.014-0.625-17.988-1.647-26.926
			c-1.002-8.766-3.063-17.359-4.866-25.989c-2.145-10.264-5.366-20.222-8.513-30.203c-3.741-11.868-7.471-23.741-12.778-35.037
			c-1.302-2.772-2.597-5.553-4.324-8.039c-0.586,0.121-0.722,0.494-0.934,0.787c-3.625,5.016-6.602,10.443-9.448,15.899
			c-6.516,12.49-12.811,25.094-18.396,38.043c-5.346,12.393-10.945,24.68-14.797,37.658c-0.966,3.255-1.983,6.495-3.003,9.733
			c-0.234,0.742-0.52,1.79-1.534,1.378c-1.833-0.745-3.811-0.896-5.643-1.6c-0.529-0.204-1.128-0.237-1.326-1.089
			c2.445-0.113,4.711,0.912,7.106,0.695c0.397-1.648,0.777-3.228,1.217-5.057c-19.905-5.145-39.589-5.138-59.402,0.013
			c0.379,1.502,0.765,2.664,0.944,3.858c0.152,1.018,0.561,1.418,1.572,1.198c0.465-0.101,0.94-0.208,1.412-0.211
			c1.461-0.009,2.886-0.796,4.49-0.364c-0.505,0.934-1.326,0.951-1.996,1.159c-1.261,0.392-2.561,0.654-3.838,0.996
			c-2.23,0.598-2.263,0.617-2.976-1.721c-2.153-7.057-4.136-14.18-6.848-21.043c-9.581-24.249-20.262-47.991-33.104-70.717
			c-1.898-3.36-3.7-6.787-6.242-9.82c-1.852,2.663-3.196,5.501-4.522,8.343c-6.701,14.364-10.928,29.605-15.782,44.623
			c-3.421,10.583-5.684,21.449-7.95,32.316c-2.253,10.807-3.511,21.744-3.845,32.76c-0.389,12.848,0.274,25.664,2.218,38.387
			c0.35,2.294,0.607,4.626,1.437,7.084C150.077,221.507,151.359,219.141,153.419,216.844z"/>
		<path style="fill:#4C1C3C;" d="M365.877,254.762c-0.804-7.908-1.995-15.727-4.907-23.156c-1.147-2.926-1.896-5.684-0.308-8.624
			c0.048-0.088,0.03-0.21,0.052-0.314c2.525-11.867,3.094-23.927,3.492-35.999c0.158-4.798-0.238-9.582-0.585-14.369
			c-0.462-6.367-0.85-12.75-2.054-19.019c-2.693-14.015-5.273-28.063-9.826-41.644c-4.255-12.689-7.809-25.622-13.158-37.929
			c-2.013-4.632-4.081-9.25-6.883-13.48c-1.266-1.91-2.326-1.875-3.691-0.083c-3.398,4.463-6.158,9.34-8.86,14.216
			c-6.627,11.954-12.703,24.2-18.285,36.678c-4.971,11.112-10.101,22.166-13.939,33.747c-1.147,3.462-2.194,6.958-3.249,10.32
			c-20.253-5.32-40.344-5.325-60.588-0.002c-0.106-0.325-0.276-0.818-0.427-1.317c-1.856-6.101-3.714-12.207-6.135-18.11
			c-7.388-18.016-15.458-35.718-24.464-52.993c-4.037-7.745-8.275-15.351-13.326-22.485c-1.355-1.914-2.433-1.874-3.754,0.109
			c-1.865,2.799-3.364,5.802-4.75,8.854c-8.223,18.108-13.945,37.1-19.089,56.225c-3.648,13.563-6.531,27.361-7.58,41.462
			c-0.482,6.482-1.047,12.949-0.921,19.454c0.169,8.732,0.42,17.464,1.68,26.12c0.679,4.665,1.081,9.402,2.847,13.85
			c0.181,0.455,0.234,0.871,0.032,1.367c-3.051,7.526-4.985,15.33-5.953,23.397c-0.667,5.566-1.03,11.141-0.879,16.739
			c0.186,6.877,1.337,13.633,2.631,20.378c2.148,11.193,6.074,21.531,13.439,30.453c5.105,6.184,11.433,10.322,19.113,12.307
			c8.934,2.31,18.11,3.132,27.278,3.933c3.346,0.292,6.652,0.863,9.793,2.076c4.433,1.712,7.323,5.187,9.901,8.973
			c4.62,6.783,10.089,12.666,17.464,16.539c7.389,3.88,15.093,4.201,22.895,1.673c4.764-1.544,8.823-4.399,12.506-7.809
			c3.825-3.542,6.903-7.663,9.894-11.898c2.452-3.473,5.437-6.453,9.654-7.797c2.792-0.89,5.665-1.44,8.578-1.744
			c7.139-0.746,14.299-1.241,21.378-2.566c6.982-1.307,13.687-3.207,19.333-7.723c6.817-5.452,11.781-12.437,14.824-20.49
			C365.047,288.214,367.607,271.77,365.877,254.762z M360.883,289.142c-1.528,7.325-3.668,14.401-7.525,20.883
			c-2.024,3.403-4.236,6.68-7.002,9.502c-5.002,5.104-11.236,7.806-18.177,9.289c-8.61,1.84-17.354,2.501-26.064,3.507
			c-7.668,0.885-14.143,3.924-18.939,10.262c-1.663,2.197-3.249,4.466-5.007,6.585c-3.874,4.669-8.298,8.721-13.751,11.534
			c-8.254,4.259-16.242,3.604-24.09-1.135c-5.008-3.024-9.237-6.915-12.638-11.605c-1.724-2.377-3.65-4.554-5.465-6.837
			c-4.094-5.152-9.632-7.511-15.933-8.513c-5.627-0.894-11.34-1.062-16.961-1.935c-8.597-1.336-17.283-2.374-24.758-7.555
			c-3.782-2.621-6.508-6.111-9.074-9.781c-5.087-7.275-7.89-15.471-9.632-24.102c-1.156-5.728-2.212-11.468-2.818-17.283
			c-0.594-5.698-0.338-11.385,0.155-17.077c0.501-5.779,1.224-11.538,2.713-17.134c1.759-6.616,3.859-13.144,7.263-19.157
			c0.234-0.413,0.223-0.419,0.238-1.744c-2.059,2.297-3.341,4.663-4.793,7.267c-0.83-2.458-1.086-4.791-1.437-7.084
			c-1.944-12.724-2.607-25.54-2.218-38.387c0.334-11.016,1.592-21.953,3.845-32.76c2.266-10.867,4.529-21.733,7.95-32.316
			c4.854-15.018,9.081-30.259,15.782-44.623c1.326-2.842,2.67-5.68,4.522-8.343c2.542,3.033,4.343,6.46,6.242,9.82
			c12.842,22.726,23.523,46.468,33.104,70.717c2.712,6.863,4.695,13.985,6.848,21.042c0.713,2.339,0.747,2.32,2.976,1.722
			c1.277-0.342,2.577-0.604,3.838-0.996c0.67-0.208,1.491-0.225,1.996-1.159c-1.604-0.431-3.029,0.355-4.491,0.364
			c-0.471,0.003-0.947,0.11-1.412,0.211c-1.011,0.22-1.42-0.181-1.572-1.198c-0.179-1.193-0.565-2.355-0.944-3.858
			c19.813-5.151,39.497-5.158,59.402-0.013c-0.44,1.829-0.821,3.408-1.217,5.057c-2.395,0.216-4.661-0.808-7.106-0.695
			c0.198,0.852,0.797,0.885,1.326,1.089c1.832,0.705,3.809,0.856,5.643,1.6c1.014,0.412,1.3-0.636,1.534-1.378
			c1.019-3.239,2.036-6.478,3.003-9.733c3.852-12.978,9.451-25.265,14.797-37.658c5.585-12.949,11.881-25.553,18.397-38.043
			c2.846-5.456,5.823-10.882,9.448-15.899c0.211-0.292,0.348-0.666,0.934-0.787c1.728,2.486,3.022,5.267,4.324,8.039
			c5.307,11.296,9.036,23.169,12.778,35.037c3.146,9.981,6.368,19.939,8.513,30.204c1.803,8.63,3.864,17.223,4.866,25.989
			c1.022,8.938,1.937,17.911,1.647,26.926c-0.375,11.65-0.957,23.293-3.182,34.779c-0.121,0.623-0.292,1.237-0.458,1.85
			c-0.022,0.083-0.152,0.137-0.291,0.253c-1.394-2.331-2.563-4.813-4.646-6.895c-0.344,0.933,0.117,1.409,0.39,1.945
			c3.949,7.756,6.753,15.895,8.242,24.484c1.055,6.084,1.764,12.191,1.945,18.374C364.214,271.06,362.766,280.114,360.883,289.142z"
			/>
		<path style="fill:#ED5F77;" d="M346.219,172.611c-0.547-7.628-1.281-15.248-2.109-22.856c-0.794-7.394-1.582-14.781-2.676-22.128
			c-1.662-11.138-4.151-22.108-7.447-32.872c-1.054-3.443-1.969-6.953-3.584-10.203c-0.207-0.42-0.387-0.914-0.981-0.928
			c-0.627-0.02-0.747,0.534-0.941,0.941c-0.3,0.621-0.534,1.275-0.781,1.922c-9.736,25.512-18.738,51.303-28.148,76.942
			c-0.867,2.376-1.428,4.885-2.789,7.087c0.173,0.674,0.721,1.008,1.248,1.368c6.48,4.485,12.946,8.989,19.432,13.46
			c9.309,6.426,18.264,13.293,26.419,21.161c0.387,0.374,0.727,0.834,1.348,0.567c0.554-0.24,0.654-0.761,0.774-1.308
			c0.828-3.824,0.667-7.734,0.894-11.598C347.3,186.972,346.739,179.785,346.219,172.611z"/>
		<path style="fill:#ED5F77;" d="M209.091,168.801c-4.665-12.893-9.302-25.792-13.974-38.691
			c-5.318-14.688-10.597-29.395-16.229-43.97c-0.347-0.908-0.307-2.496-1.608-2.429c-1.141,0.06-1.328,1.528-1.682,2.489
			c-2.569,6.973-4.578,14.127-6.326,21.354c-2.169,8.982-3.844,18.058-4.878,27.247c-0.687,6.126-1.515,12.232-2.156,18.365
			c-0.547,5.285-0.874,10.597-1.375,15.889c-0.641,6.74-0.861,13.493-0.847,20.253c0,2.976-0.074,5.966,0.027,8.942
			c0.08,2.336,0.34,4.665,0.607,6.987c0.08,0.694,0.1,1.568,0.981,1.855c0.781,0.267,1.128-0.427,1.561-0.861
			c2.589-2.616,5.399-4.998,8.208-7.374c11.458-9.689,24.177-17.637,36.389-26.292C209.912,171.063,209.925,171.123,209.091,168.801
			z"/>
		<g>
			<path style="fill:#E8C152;" d="M342.502,153.199c-1.768,0.093-2.863-0.988-3.216-3.036c-0.3-1.702,0.454-2.769,2.482-3.383
				C342.021,148.995,342.261,151.09,342.502,153.199z"/>
			<path style="fill:#E8C152;" d="M340.513,135.929c-1.802-0.087-3.19-1.355-3.484-3.103c-0.34-1.982,0.24-2.896,2.523-3.757
				C339.886,131.431,340.193,133.673,340.513,135.929z"/>
			<path style="fill:#E8C152;" d="M337.597,117.498c-3.11-1.495-3.757-4.438-1.461-6.72
				C336.629,113.04,337.09,115.149,337.597,117.498z"/>
			<path style="fill:#E8C152;" d="M170.573,110.824c2.409,2.075,1.735,5.318-1.408,6.593
				C169.646,115.169,170.099,113.04,170.573,110.824z"/>
			<path style="fill:#E8C152;" d="M167.123,129.222c1.828,0.314,2.723,1.215,2.756,2.709c0.04,1.862-1.295,3.517-3.523,4.137
				C166.349,133.667,166.95,131.471,167.123,129.222z"/>
			<path style="fill:#E8C152;" d="M164.914,146.966c1.708,0.1,2.656,1.134,2.569,2.723c-0.12,2.249-1.295,3.59-3.217,3.55
				C164.481,151.144,164.694,149.055,164.914,146.966z"/>
		</g>
		<g>
			<path style="fill:#4C1C3C;" d="M296.766,170.517c1.357-2.205,1.918-4.712,2.79-7.088c9.408-25.638,18.405-51.427,28.143-76.944
				c0.246-0.645,0.483-1.296,0.779-1.918c0.195-0.41,0.316-0.961,0.943-0.944c0.591,0.015,0.774,0.512,0.982,0.931
				c1.616,3.25,2.525,6.756,3.58,10.2c3.299,10.77,5.791,21.736,7.448,32.872c1.093,7.348,1.88,14.741,2.681,22.13
				c0.824,7.61,1.556,15.228,2.107,22.858c0.518,7.17,1.076,14.361,0.657,21.552c-0.225,3.867-0.063,7.775-0.892,11.602
				c-0.118,0.543-0.221,1.063-0.773,1.304c-0.624,0.272-0.96-0.192-1.35-0.569c-8.156-7.863-17.108-14.732-26.418-21.156
				c-6.485-4.475-12.952-8.975-19.431-13.459C297.487,171.521,296.935,171.191,296.766,170.517z M329.42,86.353
				c-9.893,28.439-20.309,56.22-30.292,84.039c15.422,10.97,31.673,20.587,45.029,34.087c1.757-4.269,0.692-37.049-1.559-49.136
				c-2.895-0.248-4.349-1.465-4.893-4.096c-0.626-3.03,0.18-4.346,3.875-6.202c-0.281-2.428-0.566-4.895-0.848-7.336
				c-3.768-0.902-5.189-2.243-5.33-4.974c-0.159-3.09,0.485-3.973,3.948-5.229c-0.462-2.672-0.932-5.381-1.396-8.091
				c-0.095-0.557-0.52-0.542-0.944-0.653c-2.216-0.584-3.38-2.163-3.679-4.325c-0.251-1.817,0.157-3.522,1.821-4.611
				c0.562-0.368,0.666-0.755,0.522-1.33C333.833,101.186,331.929,93.893,329.42,86.353z M339.553,129.067
				c-2.283,0.865-2.862,1.778-2.526,3.76c0.295,1.746,1.682,3.014,3.484,3.102C340.196,133.671,339.883,131.43,339.553,129.067z
				 M341.767,146.777c-2.027,0.616-2.78,1.686-2.484,3.383c0.359,2.053,1.451,3.134,3.221,3.038
				C342.263,151.093,342.022,148.995,341.767,146.777z M337.6,117.495c-0.51-2.346-0.969-4.452-1.462-6.721
				C333.837,113.06,334.487,116.003,337.6,117.495z"/>
			<path style="fill:#4C1C3C;" d="M160.019,189.306c-0.018-6.755,0.202-13.514,0.844-20.252c0.505-5.293,0.829-10.603,1.378-15.891
				c0.637-6.129,1.465-12.238,2.153-18.362c1.033-9.191,2.707-18.267,4.88-27.25c1.747-7.223,3.751-14.375,6.325-21.354
				c0.354-0.961,0.543-2.43,1.679-2.487c1.302-0.065,1.261,1.521,1.612,2.429c5.633,14.575,10.91,29.281,16.228,43.972
				c4.667,12.893,9.309,25.796,13.971,38.691c0.839,2.319,0.821,2.256-1.3,3.76c-12.209,8.654-24.929,16.602-36.389,26.293
				c-2.81,2.376-5.616,4.756-8.209,7.374c-0.43,0.435-0.777,1.126-1.564,0.863c-0.878-0.293-0.9-1.164-0.979-1.857
				c-0.265-2.323-0.526-4.654-0.606-6.989C159.942,195.271,160.019,192.287,160.019,189.306z M207.625,170.402
				c-10.021-27.908-20.437-55.661-30.305-84.072c-2.568,7.858-4.622,15.411-6.419,23.061c2.365,1.176,2.837,3.22,2.444,5.447
				c-0.354,2.006-1.554,3.519-3.695,3.921c-0.895,0.168-0.899,0.806-1.004,1.396c-0.437,2.452-0.833,4.911-1.243,7.359
				c3.204,1.165,4.238,2.424,4.06,4.905c-0.21,2.932-1.738,4.441-5.421,5.287c-0.302,2.482-0.608,4.996-0.911,7.485
				c3.066,1.074,4.258,2.501,4.109,4.831c-0.208,3.253-1.669,4.803-5.281,5.437c-1.349,16.245-3.459,32.502-1.633,49.248
				C175.933,191.019,192.179,181.345,207.625,170.402z M166.356,136.072c2.232-0.624,3.566-2.275,3.525-4.142
				c-0.033-1.49-0.931-2.397-2.758-2.709C166.947,131.471,166.349,133.669,166.356,136.072z M164.268,153.239
				c1.919,0.039,3.098-1.302,3.216-3.55c0.083-1.59-0.862-2.62-2.572-2.722C164.697,149.054,164.483,151.143,164.268,153.239z
				 M170.572,110.827c-0.471,2.211-0.925,4.343-1.404,6.591C172.306,116.146,172.982,112.9,170.572,110.827z"/>
		</g>
		<path style="fill:#DB394F;" d="M344.03,255.399c-5.979,5.505-13.026,8.528-21.128,9.015c-5.525,0.334-11.064,0.38-16.583,0.928
			c-7.694,0.767-14.241,3.971-19.626,9.329c-5.432,5.399-9.329,11.852-11.798,19.139c-1.595,4.698-2.502,9.529-3.21,14.414
			c-0.46,3.257-1.028,6.5-0.687,9.816c0.053,0.54-0.073,1.101,0.614,1.281c0.621,0.16,1.014-0.254,1.335-0.687
			c0.808-1.088,1.895-1.848,2.976-2.629c3.877-2.79,8.221-4.658,12.599-6.473c6.159-2.556,12.699-3.804,19.045-5.732
			c9.676-2.943,18.358-7.694,25.632-14.741c6.486-6.273,10.25-14.127,12.472-22.809c1.154-4.518,1.949-9.069,2.075-13.954
			C346.165,253.084,345.171,254.345,344.03,255.399z M279.6,307.163c-0.441,0.347-0.761,1.275-1.682,0.594
			c-0.921-0.687-0.113-1.235,0.08-1.789c2.416-7.013,5.866-13.553,9.689-19.859c4.638-7.634,11.838-11.738,20.367-13.647
			c4.624-1.034,9.342-0.647,14.014-0.334c6.42,0.427,12.219-1.181,17.484-4.825c0.133-0.093,0.28-0.16,0.427-0.214
			c0.093-0.033,0.207-0.02,0.667-0.053c-1.361,4.037-2.849,7.781-5.145,11.191c-4.965,7.367-12.259,11.498-20.227,14.694
			c-6.179,2.482-12.726,3.724-19.105,5.532C290.084,300.183,284.585,303.226,279.6,307.163z"/>
		<path style="fill:#DB394F;" d="M235.837,318.054c-0.047-2.175,0.053-4.344-0.287-6.526c-0.914-5.872-1.682-11.758-3.59-17.43
			c-2.502-7.447-6.48-14.034-12.012-19.566c-7.154-7.16-16.196-9.596-26.059-9.75c-4.678-0.073-9.382-0.073-14.014-0.841
			c-7.341-1.208-13.467-4.758-18.698-9.963c-0.607-0.601-1.094-1.448-2.322-1.555c0.167,0.887,0.414,1.548,0.4,2.209
			c-0.08,3.824,0.807,7.494,1.708,11.158c2.609,10.59,7.607,19.699,16.296,26.573c7.194,5.692,15.228,9.71,24.07,12.059
			c7.501,1.995,15.008,3.924,22.035,7.327c3.884,1.882,7.734,3.837,10.684,7.127c0.367,0.414,0.767,0.554,1.268,0.387
			C235.917,319.055,235.844,318.528,235.837,318.054z M228.363,308.084c-1.174-0.874-2.362-1.755-3.557-2.629
			c-6.259-4.571-13.393-7.02-20.867-8.728c-7.114-1.628-13.96-3.991-20.4-7.547c-8.021-4.438-13.507-10.891-16.529-19.499
			c-0.287-0.814-0.567-1.628-0.827-2.382c0.54-0.48,0.834-0.107,1.101,0.087c6.346,4.578,13.513,5.258,21.021,4.585
			c10.57-0.948,19.733,2.209,27.373,9.636c1.081,1.041,2.035,2.202,2.796,3.483c4.011,6.827,7.781,13.767,10.47,21.247
			C229.224,307.117,229.171,307.65,228.363,308.084z"/>
		<path style="fill:#DB394F;" d="M253.289,333.207c3.697,0.242,7.318,0.691,10.788,1.999c3.323,1.253,5.044,4.225,4.074,7.089
			c-0.429,1.266-1.211,2.248-2.449,2.798c-0.775,0.344-1.566,0.667-2.376,0.913c-3.24,0.986-6.217,2.475-8.829,4.635
			c-0.813,0.673-1.512,0.654-2.263,0.009c-2.799-2.402-6.099-3.825-9.574-4.91c-1.67-0.521-3.148-1.271-3.903-3.005
			c-1.257-2.889,0.379-6.162,3.804-7.491C246.017,333.903,249.647,333.47,253.289,333.207z"/>
		<g>
			<path style="fill:#EACCD2;" d="M181.898,212.772c-0.093-3.178,1.508-5.818,3.215-8.353c4.049-6.011,7.917-7.13,19.657-5.829
				c-0.142-1.005-0.273-1.976-0.416-2.945c-1.258-8.564,4.618-13.502,12.352-12.55c6.57,0.809,11.843,3.971,15.566,9.483
				c2.013,2.98,2.717,6.339,1.918,9.88c-0.571,2.529-2.249,4.184-4.704,4.989c-3.573,1.171-7.183,0.912-9.98-1.504
				c-2.251-1.945-4.631-2.497-7.329-2.648c-0.79-0.044-1.52-0.566-2.484-0.224c1.07,1.508,2.367,2.755,3.61,4.045
				c2.257,2.342,4.717,4.518,6.758,7.034c6.174,7.609,7.851,16.121,4.414,25.418c-1.321,3.573-0.957,6.768,1.072,10.007
				c1.99,3.176,4.147,6.192,6.659,8.963c0.597,0.659,1.174,1.337,1.767,2.014c-0.638,0.594-0.988,0.1-1.332-0.141
				c-4.63-3.24-8.186-7.425-10.846-12.391c-1.51-2.818-1.011-5.661-0.107-8.515c0.896-2.829,1.996-5.603,2.031-8.647
				c0.064-5.661-2.109-10.482-5.615-14.74c-2.743-3.333-5.68-6.506-8.527-9.754c-0.351-0.401-0.78-0.775-1.001-1.242
				c-2.012-4.269-6.083-4.682-9.943-4.975c-8.306-0.63-14.213,4.114-16.036,12.464c-0.019,0.087-0.135,0.153-0.205,0.228
				C182.227,212.817,182.063,212.795,181.898,212.772z M219.342,203.097c2.009,1.876,4.409,2.902,7.01,2.998
				c3.189,0.118,5.72-1.449,6.372-4.167c0.789-3.285,0.008-6.319-1.959-9.029c-3.181-4.383-7.605-6.964-12.783-8.06
				c-3.223-0.682-6.475-0.306-9.168,2.048c-3.548,3.101-3.016,8.536-1.726,12.022c0.081,0.218,0.322,0.46,0.54,0.53
				c2.192,0.704,4.445,1.049,6.817,1.237c-1.959-5.416-1.618-7.882,1.167-9.119c2.699-1.199,6.409,0.168,7.964,2.935
				C225.34,197.636,224.323,199.704,219.342,203.097z M214.836,195.64c0.049,1.684,1.746,4.764,2.623,4.761
				c1.917-0.006,4.931-2.42,4.919-3.941c-0.014-1.864-2.4-3.78-4.662-3.744C216.002,192.743,214.788,193.976,214.836,195.64z"/>
			<path style="fill:#EACCD2;" d="M301.797,198.691c6.696-1.355,13.082-1.96,18.115,3.617c2.692,2.982,4.764,6.304,5,10.877
				c-0.87-0.66-0.834-1.304-1.031-1.851c-1.889-5.236-4.885-9.572-10.576-10.996c-4.307-1.078-8.541,0.117-12.65,1.525
				c-0.219,0.075-0.404,0.334-0.544,0.547c-2.935,4.487-6.729,8.255-10.271,12.231c-3.589,4.029-6.046,8.575-6.773,13.991
				c-0.418,3.113,0.415,6.006,1.349,8.897c0.685,2.121,1.458,4.207,1.435,6.501c-0.016,1.533-0.309,2.948-1.046,4.283
				c-2.64,4.781-6.089,8.852-10.558,12.025c-0.297,0.211-0.637,0.365-0.969,0.52c-0.07,0.032-0.194-0.051-0.327-0.092
				c-0.125-0.768,0.527-1.083,0.932-1.515c3.036-3.239,5.637-6.776,7.847-10.643c1.545-2.703,1.791-5.345,0.824-8.241
				c-0.873-2.614-1.653-5.251-1.922-8.027c-0.572-5.895,1.262-11.12,4.372-15.974c2.322-3.625,5.661-6.358,8.601-9.438
				c1.164-1.219,2.423-2.357,3.571-4.052c-2.495,0.333-4.653,0.868-6.875,0.763c-0.546-0.026-0.823,0.621-1.209,0.97
				c-3.417,3.093-7.303,4.247-11.793,2.845c-3.047-0.951-4.873-3.504-4.962-6.68c-0.222-7.893,4.544-12.376,10.857-15.655
				c3.741-1.943,7.753-2.889,12.008-1.698c4.599,1.288,7.208,4.706,7.257,9.488C302.473,194.777,302.463,196.633,301.797,198.691z
				 M292.346,200.633c0.765,0.235,1.464-0.174,2.198-0.234c5.111-0.417,5.967-1.372,5.992-6.547c0.001-0.266,0-0.533-0.003-0.799
				c-0.056-4.717-3.354-8.061-8.046-8.384c-4.558-0.314-8.449,1.351-12.034,3.863c-3.597,2.522-6.296,5.729-6.707,10.35
				c-0.218,2.454,0.219,4.689,2.471,6.146c3.132,2.026,8.954,0.87,11.084-2.049c-4.425-2.514-5.801-5.072-4.35-8.084
				c1.404-2.915,5.068-4.508,7.912-3.44C293.804,192.559,294.146,194.672,292.346,200.633z M291.873,195.556
				c-0.004-1.684-1.195-2.838-2.931-2.84c-2.32-0.003-4.426,1.736-4.457,3.68c-0.027,1.684,2.594,3.89,4.757,4.003
				C290.164,200.447,291.877,197.295,291.873,195.556z"/>
			<path style="fill:#EACCD2;" d="M268.936,295.125c-0.427-2.339,0.273-4.434,0.669-6.531c2.104-11.127,7.303-20.639,14.976-28.927
				c3.889-4.2,8.129-8.001,12.36-11.824c5.263-4.756,9.743-10.147,13.219-16.324c1.868-3.321,3.042-6.881,2.873-10.8
				c-0.156-3.629-1.81-6.458-4.531-7.422c-3.242-1.148-6.686-0.163-8.968,2.786c-3.056,3.95-4.47,8.553-4.727,13.482
				c-0.088,1.678,0.397,3.366,1.163,4.907c1.163,2.339,3.792,2.869,5.707,1.126c2.371-2.158,3.883-4.815,4.12-8.042
				c0.198-2.69-0.978-4.724-3.383-6.02c-0.438-0.236-1.082-0.376-0.91-1.104c0.168-0.71,0.751-0.786,1.366-0.845
				c1.307-0.125,2.412,0.269,3.354,1.169c2.179,2.081,3.015,4.66,2.429,7.56c-0.935,4.631-3.421,8.147-8.303,8.974
				c-2.975,0.504-4.846-0.313-5.986-2.955c-1.34-3.105-1.543-6.272-0.878-9.522c0.884-4.324,2.181-8.493,5.593-11.576
				c3.158-2.853,6.752-3.613,10.787-1.955c3.732,1.533,5.032,4.742,5.663,8.298c1.066,6.006-0.912,11.368-4.033,16.34
				c-3.553,5.659-8.337,10.194-13.501,14.393c-7.056,5.737-13.567,12.036-18.607,19.682c-3.336,5.062-5.197,10.808-7.34,16.419
				c-0.928,2.43-1.691,4.906-2.248,7.443C269.696,294.331,269.671,294.8,268.936,295.125z"/>
			<path style="fill:#EACCD2;" d="M237.594,295.103c-0.588-0.539-0.615-1.187-0.791-1.782c-3.147-10.583-6.582-21.025-14.091-29.535
				c-5.024-5.694-10.629-10.75-16.455-15.612c-5.85-4.882-10.988-10.438-13.753-17.742c-1.678-4.433-2.197-8.94-0.562-13.558
				c2.211-6.247,9.314-8.448,14.697-4.499c3.926,2.88,5.391,7.148,6.456,11.592c0.739,3.082,0.692,6.148-0.251,9.268
				c-1.262,4.176-4.941,4.931-8.22,3.634c-4.54-1.796-7.425-7.231-6.496-11.996c0.591-3.031,3.209-5.439,5.705-5.292
				c0.64,0.038,1.204,0.166,1.407,0.811c0.223,0.712-0.439,0.859-0.875,1.123c-3.034,1.84-3.98,4.231-3.142,7.727
				c0.551,2.298,1.728,4.23,3.329,5.906c2.346,2.456,5.521,1.726,6.603-1.493c0.849-2.528,0.986-5.114,0.362-7.704
				c-0.954-3.956-2.136-7.832-5.171-10.783c-2.095-2.037-4.567-2.796-7.471-2.025c-2.188,0.58-3.588,1.906-4.395,4.006
				c-1.823,4.744-0.521,9.16,1.603,13.348c3.513,6.926,8.505,12.745,14.312,17.857c6.175,5.437,12.117,11.094,17.033,17.727
				c5.324,7.183,8.486,15.285,10.014,24.057c0.191,1.096,0.409,2.187,0.566,3.287C238.086,293.974,238.313,294.591,237.594,295.103z
				"/>
			<path style="fill:#EACCD2;" d="M245.384,249.252c-0.193-2.207-0.261-4.422-0.687-6.605c-0.692-3.546-2.59-6.473-4.754-9.263
				c-2.935-3.784-6.257-7.284-8.454-11.609c-0.723-1.424-1.415-2.855-1.901-4.381c-1.117-3.507-0.135-6.413,2.603-8.738
				c2.918-2.479,6.431-3.909,9.897-5.411c2.858-1.239,3.769-3.132,3.078-6.131c-0.449-1.95-1.265-3.752-2.372-5.371
				c-4.673-6.83-10.832-11.813-18.672-14.61c-2.668-0.952-5.421-0.947-8.189-0.522c-0.468,0.072-0.941,0.198-1.642-0.169
				c1.234-0.997,2.639-1.101,3.961-1.311c3.95-0.628,7.594,0.486,11.074,2.202c6.383,3.147,11.75,7.517,15.622,13.547
				c1.528,2.38,2.646,4.947,2.776,7.88c0.13,2.951-1.173,5.015-3.621,6.436c-2.254,1.309-4.58,2.495-6.835,3.802
				c-5.81,3.368-6.448,5.585-3.487,11.529c1.603,3.218,3.776,6.044,5.901,8.912c2.608,3.521,4.945,7.211,5.602,11.651
				C245.683,243.784,246.027,246.508,245.384,249.252z"/>
			<path style="fill:#EACCD2;" d="M261.323,249.543c-0.892-7.138,0.688-13.235,4.716-18.711c2.679-3.643,5.547-7.157,7.429-11.334
				c2.15-4.77,1.526-7.12-2.946-9.868c-2.218-1.363-4.52-2.594-6.828-3.802c-4.273-2.236-5.603-5.29-4.197-9.921
				c1.662-5.472,5.27-9.548,9.543-13.117c4.169-3.482,8.725-6.261,14.099-7.487c2.933-0.669,5.796-0.287,8.621,0.582
				c0.2,0.062,0.508,0.209,0.474,0.563c-0.185,0.394-0.557,0.288-0.832,0.231c-5.451-1.125-10.34,0.451-14.885,3.27
				c-5.779,3.584-10.847,7.925-13.863,14.222c-0.434,0.905-0.798,1.86-1.059,2.828c-0.793,2.946,0.186,5.009,2.992,6.206
				c2.892,1.234,5.766,2.503,8.389,4.246c4.638,3.082,5.671,6.715,3.498,11.845c-2.133,5.034-5.557,9.202-9.056,13.282
				c-4.028,4.696-6.124,9.994-5.856,16.198C261.568,248.922,261.474,249.071,261.323,249.543z"/>
			<path style="fill:#EACCD2;" d="M204.466,310.935c-0.313,0.316-0.588,0.095-0.869-0.044c-4.704-2.328-9.565-1.905-14.491-0.909
				c-4.316,0.873-8.603,1.929-13.074,1.814c-9.697-0.251-17.671-5.56-21.032-14.217c-0.99-2.549-1.503-5.208-0.879-7.967
				c1.03-4.553,4.727-6.658,9.185-5.092c4.413,1.551,6.94,4.846,7.793,9.336c0.699,3.676-2.55,6.578-6.218,5.744
				c-0.972-0.221-1.75-0.785-2.263-1.647c-0.331-0.555-0.61-1.156-0.128-1.784c0.531-0.692,1.051-0.157,1.558,0.038
				c2.213,0.85,4.18-0.425,4.235-2.755c0.086-3.696-3.372-7.567-7.048-7.889c-3.313-0.29-5.76,2.061-5.718,5.753
				c0.064,5.588,2.665,9.976,6.887,13.449c4.584,3.77,10.023,4.483,15.676,3.96c5.284-0.489,10.453-1.962,15.83-1.752
				c3.605,0.141,6.86,1.28,9.963,2.996C204.237,310.17,204.65,310.385,204.466,310.935z"/>
			<path style="fill:#EACCD2;" d="M302.237,310.952c-0.048-0.765,0.592-0.926,1.065-1.205c4.56-2.691,9.505-3.087,14.652-2.594
				c4.864,0.465,9.595,1.905,14.554,1.718c8.692-0.329,15.71-5.394,18.076-13.174c0.555-1.824,0.663-3.666,0.503-5.522
				c-0.288-3.338-3.291-5.311-6.547-4.383c-3.642,1.038-6.042,4.138-5.976,7.72c0.042,2.284,1.89,3.523,4.05,2.732
				c0.545-0.2,1.184-0.861,1.649,0.018c0.383,0.724,0.126,1.456-0.39,2.073c-1.273,1.523-2.996,1.637-4.688,1.187
				c-1.853-0.494-3.181-1.716-3.465-3.753c-0.661-4.737,3.597-10.493,8.478-11.485c5.299-1.077,9.001,2.375,8.616,8.035
				c-0.581,8.563-7.098,16.207-15.674,18.519c-5.399,1.456-10.74,0.99-16.11-0.125c-3.269-0.679-6.513-1.509-9.898-1.544
				c-2.6-0.027-5.058,0.432-7.426,1.482C303.258,310.849,302.84,311.324,302.237,310.952z"/>
			<path style="fill:#EACCD2;" d="M206.529,257.479c-0.668,0.326-0.926,0.099-1.16-0.1c-2.972-2.519-6.397-4.407-9.462-6.789
				c-5.072-3.941-9.174-8.58-10.432-15.156c-0.298-1.556-0.783-3.098-0.247-4.714c0.209-0.628,0.528-1.089,1.193-1.081
				c0.677,0.008,0.969,0.484,1.121,1.135c0.409,1.753,0.798,3.517,1.343,5.23c1.956,6.144,5.98,10.817,10.724,14.992
				C201.949,253.056,204.165,255.256,206.529,257.479z"/>
			<path style="fill:#EACCD2;" d="M300.252,257.496c1.997-1.905,3.919-3.763,5.868-5.594c2.017-1.894,4.124-3.686,5.95-5.789
				c3.722-4.287,5.97-9.247,7.006-14.787c0.155-0.826,0.287-1.727,1.315-1.667c1.079,0.063,1.262,1.013,1.26,1.903
				c-0.014,4.972-1.648,9.378-4.79,13.204c-2.171,2.643-4.635,4.978-7.492,6.903c-2.686,1.809-5.289,3.741-7.929,5.62
				C301.154,257.491,300.93,257.873,300.252,257.496z"/>
			<path style="fill:#EACCD2;" d="M170.058,300.474c1.855,1,3.602,1.962,5.662,2.418c3.432,0.758,6.737,0.325,10.049-0.547
				c0.744-0.196,1.573-0.38,1.923,0.527c0.378,0.981-0.247,1.622-1.076,2.032c-4.399,2.174-13.396-0.017-16.397-3.987
				C170.127,300.797,170.109,300.623,170.058,300.474z"/>
			<path style="fill:#EACCD2;" d="M336.782,300.397c-0.751,1.341-1.878,2.069-2.98,2.753c-4.03,2.502-8.343,3.301-12.977,1.977
				c-0.588-0.168-1.108-0.379-1.493-0.846c-0.369-0.447-0.443-0.974-0.219-1.502c0.26-0.61,0.824-0.645,1.362-0.548
				c0.78,0.142,1.542,0.381,2.32,0.541c4.8,0.984,9.402,0.855,13.438-2.422C336.287,300.305,336.425,300.362,336.782,300.397z"/>
		</g>
		<g>
			<path style="fill:#DB394F;" d="M253.589,237.898c-1.034-0.39-0.69-1.105-0.835-1.618c-1.25-4.434-3.02-8.617-5.837-12.308
				c-0.488-0.639-0.976-1.258-1.68-1.681c-1.001-0.602-0.952-1.315-0.167-2.066c4.231-4.047,6.223-9.167,7.115-14.816
				c0.041-0.261,0.114-0.518,0.186-0.772c0.167-0.593,0.16-1.387,1.083-1.28c0.717,0.083,0.821,0.716,0.951,1.303
				c0.401,1.812,0.787,3.629,1.247,5.426c0.975,3.805,2.976,7.047,5.702,9.823c1.025,1.044,1.111,1.619-0.115,2.635
				c-2.429,2.013-3.731,4.875-5.087,7.65C254.972,232.609,254.345,235.229,253.589,237.898z"/>
			<path style="fill:#DB394F;" d="M172.622,251.232c-0.134,1.148-0.745,1.875-1.919,1.943c-1.176,0.068-2.189-1.093-2.069-2.316
				c0.108-1.104,0.722-1.757,1.864-1.743C171.704,249.131,172.665,250.125,172.622,251.232z"/>
			<path style="fill:#DB394F;" d="M334.13,251.169c0.008-1.104,1.001-2.084,2.175-2.056c1.254,0.03,1.75,0.8,1.741,1.983
				c-0.011,1.287-0.749,1.943-1.937,2.072C335.022,253.286,334.121,252.316,334.13,251.169z"/>
		</g>
		<path style="fill:#4C1C3C;" d="M339.979,267.091c-0.147,0.053-0.294,0.12-0.427,0.214c-5.265,3.644-11.064,5.252-17.484,4.825
			c-4.671-0.314-9.389-0.701-14.014,0.334c-8.528,1.909-15.729,6.013-20.367,13.647c-3.824,6.306-7.274,12.846-9.689,19.859
			c-0.193,0.554-1.001,1.101-0.08,1.789c0.921,0.681,1.241-0.247,1.682-0.594c4.985-3.937,10.484-6.98,16.569-8.709
			c6.38-1.808,12.926-3.05,19.105-5.532c7.968-3.196,15.262-7.327,20.227-14.694c2.296-3.41,3.784-7.154,5.145-11.191
			C340.186,267.071,340.073,267.057,339.979,267.091z M333.7,277.254c-5.973,7.627-14.234,11.645-23.109,14.701
			c-4.578,1.568-9.322,2.523-13.967,3.857c-6.053,1.748-11.591,4.504-16.283,8.802c-0.14,0.127-0.307,0.233-0.727,0.547
			c2.015-4.845,4.191-9.236,6.833-13.413c2.496-3.937,5.025-7.788,8.829-10.624c6.313-4.705,13.246-7.354,21.254-6.867
			c3.29,0.2,6.607,0.14,9.91,0.134c3.904-0.013,7.381-1.415,10.624-3.47c0.22-0.14,0.447-0.26,0.961-0.554
			C336.863,273.09,335.321,275.185,333.7,277.254z"/>
		<path style="fill:#4C1C3C;" d="M228.944,306.336c-2.689-7.481-6.46-14.421-10.47-21.247c-0.761-1.281-1.715-2.442-2.796-3.483
			c-7.641-7.427-16.803-10.584-27.373-9.636c-7.507,0.674-14.674-0.007-21.021-4.585c-0.267-0.194-0.561-0.567-1.101-0.087
			c0.26,0.754,0.54,1.568,0.827,2.382c3.023,8.608,8.508,15.061,16.529,19.499c6.44,3.557,13.286,5.919,20.4,7.547
			c7.474,1.708,14.608,4.157,20.867,8.728c1.195,0.874,2.382,1.755,3.557,2.629C229.171,307.65,229.224,307.117,228.944,306.336z
			 M224.159,302.712c-5.318-3.99-11.338-6.393-17.784-7.901c-8.095-1.895-15.976-4.391-23.189-8.688
			c-6.306-3.757-10.971-9.002-14.314-15.542c3.957,2.596,8.248,3.964,12.953,3.917c2.823-0.02,5.652-0.08,8.468-0.22
			c10.243-0.527,18.672,3.423,25.352,10.884c3.971,4.438,6.873,9.709,9.322,15.175c0.641,1.428,1.542,2.756,1.949,4.631
			C225.847,304.094,225.033,303.366,224.159,302.712z"/>
	</g>
</g>
</svg>
